<?xml version="1.0" encoding="utf-8"?>
<!-- Generator: Adobe Illustrator 13.0.0, SVG Export Plug-In . SVG Version: 6.00 Build 14948)  -->
<!DOCTYPE svg PUBLIC "-//W3C//DTD SVG 1.1//EN" "http://www.w3.org/Graphics/SVG/1.1/DTD/svg11.dtd">
<svg version="1.1" id="Capa_1" xmlns="http://www.w3.org/2000/svg" xmlns:xlink="http://www.w3.org/1999/xlink" x="0px" y="0px"
	 width="41px" height="25px" viewBox="0 0 41 25" enable-background="new 0 0 41 25" xml:space="preserve">
<path fill="#1E201D" d="M0.371,11.622c-0.494,0.479-0.494,1.277,0,1.757l11.133,11.133c0.479,0.494,1.277,0.494,1.776,0
	c0.479-0.479,0.479-1.28,0-1.775l-9.001-8.983h29.7c0.693,0,1.242-0.57,1.242-1.262c0-0.692-0.549-1.243-1.242-1.244h-29.7
	l9.001-9.001c0.479-0.479,0.479-1.277,0-1.756c-0.499-0.497-1.296-0.497-1.776,0L0.371,11.622z"/>
<line fill="none" stroke="#1E201D" stroke-width="2.5" stroke-linecap="round" stroke-linejoin="round" x1="39.75" y1="1.25" x2="39.75" y2="23.938"/>
</svg>
