<?xml version="1.0" encoding="utf-8"?>
<!-- Generator: Adobe Illustrator 13.0.0, SVG Export Plug-In . SVG Version: 6.00 Build 14948)  -->
<!DOCTYPE svg PUBLIC "-//W3C//DTD SVG 1.1//EN" "http://www.w3.org/Graphics/SVG/1.1/DTD/svg11.dtd">
<svg version="1.1" id="Capa_1" xmlns="http://www.w3.org/2000/svg" xmlns:xlink="http://www.w3.org/1999/xlink" x="0px" y="0px"
	 width="41px" height="25px" viewBox="0 0 41 25" enable-background="new 0 0 41 25" xml:space="preserve">
<path fill="#1E201D" d="M29.496,0.49c-0.48-0.497-1.277-0.497-1.776,0c-0.479,0.479-0.479,1.278,0,1.756l9.001,9.001H7.02
	c-0.692,0.001-1.242,0.551-1.242,1.244c0,0.691,0.55,1.262,1.242,1.262h29.701l-9.001,8.983c-0.479,0.495-0.479,1.296,0,1.775
	c0.499,0.494,1.298,0.494,1.776,0l11.133-11.133c0.494-0.48,0.494-1.278,0-1.757L29.496,0.49z"/>
<line fill="none" stroke="#1E201D" stroke-width="2.5" stroke-linecap="round" stroke-linejoin="round" x1="1.25" y1="1.25" x2="1.25" y2="23.938"/>
</svg>
